# xmcd
#
# Track frame offsets:
#	150
#	7348
#	39146
#	54353
#	72221
#	96940
#	121892
#	140601
#	160571
#	181238
#	202765
#
# Disc length: 3038 seconds
#
# Revision: 0
# Processed by: cddbd v1.5.2PL0 Copyright (c) Steve Scherf et al.
# Submitted via: dBpowerAMP V4.0
#
DISCID=880bdc0b
DTITLE=Various Artist - Blues Legends At The Antone's disc2
DYEAR=2002
DGENRE=Blues
TTITLE0=PINETOP PERKINS-Intro/Chicken Shack
TTITLE1=PINETOP PERKINS-Little Girl
TTITLE2=JIMMY ROGERS-Chicago Bound
TTITLE3=ANGELA STREHLI-What It Takes
TTITLE4=JAMES COTTON-How Long Can A Bell Rings
TTITLE5=LAZY LESTER-A Woman
TTITLE6=PETE MAYES-I'm Ready
TTITLE7=TEDDY MORGAN-Going Back Home
TTITLE8=LUTHER TUCKER-Sweet Home Chicago
TTITLE9=GUY FORSYTH-You're Still Here
TTITLE10=KIM WILSON-I'm Leaving You
EXTD=
EXTT0=
EXTT1=
EXTT2=
EXTT3=
EXTT4=
EXTT5=
EXTT6=
EXTT7=
EXTT8=
EXTT9=
EXTT10=
PLAYORDER=
